<mxfile host="65bd71144e">
    <diagram id="2iBKjBLJWLR9v1AM_TlW" name="Page-1">
        <mxGraphModel dx="3935" dy="1759" grid="0" gridSize="10" guides="1" tooltips="1" connect="1" arrows="1" fold="1" page="0" pageScale="1" pageWidth="850" pageHeight="1100" math="0" shadow="0">
            <root>
                <mxCell id="0"/>
                <mxCell id="1" parent="0"/>
                <mxCell id="46" value="Mongo or MySQL" style="shape=cylinder3;whiteSpace=wrap;html=1;boundedLbl=1;backgroundOutline=1;size=15;fontStyle=1" parent="1" vertex="1">
                    <mxGeometry x="-768" y="-29" width="120" height="260" as="geometry"/>
                </mxCell>
                <mxCell id="94" style="edgeStyle=none;html=1;exitX=0.5;exitY=1;exitDx=0;exitDy=0;entryX=0.5;entryY=0;entryDx=0;entryDy=0;fontSize=12;fontColor=default;" parent="1" source="81" target="82" edge="1">
                    <mxGeometry relative="1" as="geometry"/>
                </mxCell>
                <mxCell id="96" style="edgeStyle=none;html=1;exitX=0.5;exitY=1;exitDx=0;exitDy=0;entryX=0.5;entryY=0;entryDx=0;entryDy=0;" parent="1" source="81" target="83" edge="1">
                    <mxGeometry relative="1" as="geometry"/>
                </mxCell>
                <mxCell id="97" style="edgeStyle=none;html=1;exitX=0.5;exitY=1;exitDx=0;exitDy=0;entryX=0.5;entryY=0;entryDx=0;entryDy=0;" parent="1" source="81" target="84" edge="1">
                    <mxGeometry relative="1" as="geometry"/>
                </mxCell>
                <mxCell id="98" style="edgeStyle=none;html=1;exitX=0.5;exitY=1;exitDx=0;exitDy=0;entryX=0.5;entryY=0;entryDx=0;entryDy=0;" parent="1" source="81" target="85" edge="1">
                    <mxGeometry relative="1" as="geometry"/>
                </mxCell>
                <mxCell id="81" value="&lt;font style=&quot;font-size: 20px;&quot;&gt;Table Relations&lt;/font&gt;" style="text;html=1;strokeColor=none;fillColor=none;align=center;verticalAlign=middle;whiteSpace=wrap;rounded=0;" parent="1" vertex="1">
                    <mxGeometry x="280" y="-860" width="160" height="30" as="geometry"/>
                </mxCell>
                <mxCell id="83" value="One-to-Many" style="text;whiteSpace=wrap;fontSize=20;" parent="1" vertex="1">
                    <mxGeometry x="220" y="-696" width="120" height="30" as="geometry"/>
                </mxCell>
                <mxCell id="84" value="Many-to-One" style="text;whiteSpace=wrap;fontSize=20;" parent="1" vertex="1">
                    <mxGeometry x="976" y="-868" width="120" height="30" as="geometry"/>
                </mxCell>
                <mxCell id="85" value="Many-to-Many" style="text;whiteSpace=wrap;fontSize=20;" parent="1" vertex="1">
                    <mxGeometry x="982" y="-933" width="140" height="30" as="geometry"/>
                </mxCell>
                <mxCell id="154" value="" style="group" parent="1" vertex="1" connectable="0">
                    <mxGeometry x="-694" y="-746" width="839" height="480" as="geometry"/>
                </mxCell>
                <mxCell id="82" value="One-to-One" style="text;strokeColor=none;fillColor=none;align=center;verticalAlign=middle;rounded=0;fontSize=20;fontColor=default;whiteSpace=wrap;" parent="154" vertex="1">
                    <mxGeometry x="530" width="110" height="30" as="geometry"/>
                </mxCell>
                <mxCell id="87" value="Car" style="text;html=1;strokeColor=none;fillColor=none;align=center;verticalAlign=middle;whiteSpace=wrap;rounded=0;fontSize=20;fontColor=default;labelBorderColor=none;labelBackgroundColor=default;" parent="154" vertex="1">
                    <mxGeometry x="160" y="110" width="60" height="30" as="geometry"/>
                </mxCell>
                <mxCell id="92" style="edgeStyle=none;html=1;exitX=0.5;exitY=1;exitDx=0;exitDy=0;entryX=0.5;entryY=0;entryDx=0;entryDy=0;fontSize=12;fontColor=default;" parent="154" source="82" target="87" edge="1">
                    <mxGeometry relative="1" as="geometry"/>
                </mxCell>
                <mxCell id="99" value="owning side is the VIN as it has car id as reference" style="edgeLabel;html=1;align=center;verticalAlign=middle;resizable=0;points=[];" parent="92" vertex="1" connectable="0">
                    <mxGeometry x="0.1015" y="-2" relative="1" as="geometry">
                        <mxPoint y="1" as="offset"/>
                    </mxGeometry>
                </mxCell>
                <mxCell id="88" value="Vin" style="text;html=1;strokeColor=none;fillColor=none;align=center;verticalAlign=middle;whiteSpace=wrap;rounded=0;fontSize=20;fontColor=default;labelBorderColor=none;labelBackgroundColor=default;" parent="154" vertex="1">
                    <mxGeometry x="570" y="110" width="60" height="30" as="geometry"/>
                </mxCell>
                <mxCell id="93" style="edgeStyle=none;html=1;exitX=0.5;exitY=1;exitDx=0;exitDy=0;entryX=0.5;entryY=0;entryDx=0;entryDy=0;fontSize=12;fontColor=default;" parent="154" source="82" target="88" edge="1">
                    <mxGeometry relative="1" as="geometry"/>
                </mxCell>
                <mxCell id="129" value="Car" style="swimlane;fontStyle=1;childLayout=stackLayout;horizontal=1;startSize=30;horizontalStack=0;resizeParent=1;resizeParentMax=0;resizeLast=0;collapsible=1;marginBottom=0;whiteSpace=wrap;html=1;" parent="154" vertex="1">
                    <mxGeometry y="260" width="240" height="210" as="geometry">
                        <mxRectangle x="-620" y="-370" width="60" height="30" as="alternateBounds"/>
                    </mxGeometry>
                </mxCell>
                <mxCell id="130" value="id :&amp;nbsp;&lt;span style=&quot;font-weight: normal;&quot;&gt;Long autogenerated&lt;/span&gt;" style="text;strokeColor=none;fillColor=none;align=left;verticalAlign=middle;spacingLeft=4;spacingRight=4;overflow=hidden;points=[[0,0.5],[1,0.5]];portConstraint=eastwest;rotatable=0;whiteSpace=wrap;html=1;fontStyle=1" parent="129" vertex="1">
                    <mxGeometry y="30" width="240" height="30" as="geometry"/>
                </mxCell>
                <mxCell id="131" value="name : &lt;span style=&quot;font-weight: 400;&quot;&gt;TEXT&lt;/span&gt;" style="text;strokeColor=none;fillColor=none;align=left;verticalAlign=middle;spacingLeft=4;spacingRight=4;overflow=hidden;points=[[0,0.5],[1,0.5]];portConstraint=eastwest;rotatable=0;whiteSpace=wrap;html=1;fontStyle=1" parent="129" vertex="1">
                    <mxGeometry y="60" width="240" height="30" as="geometry"/>
                </mxCell>
                <mxCell id="132" value="color :&amp;nbsp;&lt;span style=&quot;font-weight: 400;&quot;&gt;TEXT&lt;/span&gt;" style="text;strokeColor=none;fillColor=none;align=left;verticalAlign=middle;spacingLeft=4;spacingRight=4;overflow=hidden;points=[[0,0.5],[1,0.5]];portConstraint=eastwest;rotatable=0;whiteSpace=wrap;html=1;fontStyle=1" parent="129" vertex="1">
                    <mxGeometry y="90" width="240" height="30" as="geometry"/>
                </mxCell>
                <mxCell id="134" value="year :&amp;nbsp;&lt;span style=&quot;font-weight: 400;&quot;&gt;INT&lt;/span&gt;" style="text;strokeColor=none;fillColor=none;align=left;verticalAlign=middle;spacingLeft=4;spacingRight=4;overflow=hidden;points=[[0,0.5],[1,0.5]];portConstraint=eastwest;rotatable=0;whiteSpace=wrap;html=1;fontStyle=1" parent="129" vertex="1">
                    <mxGeometry y="120" width="240" height="30" as="geometry"/>
                </mxCell>
                <mxCell id="135" value="number_of_seats :&amp;nbsp;&lt;span style=&quot;font-weight: 400;&quot;&gt;INT&lt;/span&gt;" style="text;strokeColor=none;fillColor=none;align=left;verticalAlign=middle;spacingLeft=4;spacingRight=4;overflow=hidden;points=[[0,0.5],[1,0.5]];portConstraint=eastwest;rotatable=0;whiteSpace=wrap;html=1;fontStyle=1" parent="129" vertex="1">
                    <mxGeometry y="150" width="240" height="30" as="geometry"/>
                </mxCell>
                <mxCell id="137" value="&lt;b&gt;vin :&lt;/b&gt; VIN reference id" style="text;strokeColor=none;fillColor=none;align=left;verticalAlign=middle;spacingLeft=4;spacingRight=4;overflow=hidden;points=[[0,0.5],[1,0.5]];portConstraint=eastwest;rotatable=0;whiteSpace=wrap;html=1;" parent="129" vertex="1">
                    <mxGeometry y="180" width="240" height="30" as="geometry"/>
                </mxCell>
                <mxCell id="142" value="Vin" style="swimlane;fontStyle=1;childLayout=stackLayout;horizontal=1;startSize=30;horizontalStack=0;resizeParent=1;resizeParentMax=0;resizeLast=0;collapsible=1;marginBottom=0;whiteSpace=wrap;html=1;" parent="154" vertex="1">
                    <mxGeometry x="440" y="260" width="240" height="120" as="geometry">
                        <mxRectangle x="-620" y="-370" width="60" height="30" as="alternateBounds"/>
                    </mxGeometry>
                </mxCell>
                <mxCell id="143" value="id :&amp;nbsp;&lt;span style=&quot;font-weight: normal;&quot;&gt;Long autogenerated&lt;/span&gt;" style="text;strokeColor=none;fillColor=none;align=left;verticalAlign=middle;spacingLeft=4;spacingRight=4;overflow=hidden;points=[[0,0.5],[1,0.5]];portConstraint=eastwest;rotatable=0;whiteSpace=wrap;html=1;fontStyle=1" parent="142" vertex="1">
                    <mxGeometry y="30" width="240" height="30" as="geometry"/>
                </mxCell>
                <mxCell id="144" value="vin : &lt;span style=&quot;font-weight: 400;&quot;&gt;TEXT&lt;/span&gt;" style="text;strokeColor=none;fillColor=none;align=left;verticalAlign=middle;spacingLeft=4;spacingRight=4;overflow=hidden;points=[[0,0.5],[1,0.5]];portConstraint=eastwest;rotatable=0;whiteSpace=wrap;html=1;fontStyle=1" parent="142" vertex="1">
                    <mxGeometry y="60" width="240" height="30" as="geometry"/>
                </mxCell>
                <mxCell id="148" value="&lt;b&gt;car_Id :&amp;nbsp;&lt;/b&gt;reference id of Car id" style="text;strokeColor=none;fillColor=none;align=left;verticalAlign=middle;spacingLeft=4;spacingRight=4;overflow=hidden;points=[[0,0.5],[1,0.5]];portConstraint=eastwest;rotatable=0;whiteSpace=wrap;html=1;" parent="142" vertex="1">
                    <mxGeometry y="90" width="240" height="30" as="geometry"/>
                </mxCell>
                <mxCell id="151" style="html=1;entryX=0;entryY=0.5;entryDx=0;entryDy=0;strokeColor=default;startArrow=classic;startFill=1;curved=1;" parent="154" target="148" edge="1">
                    <mxGeometry relative="1" as="geometry">
                        <mxPoint x="429.9999999999998" y="360" as="targetPoint"/>
                        <mxPoint x="240" y="455" as="sourcePoint"/>
                        <Array as="points">
                            <mxPoint x="330" y="480"/>
                            <mxPoint x="370" y="340"/>
                        </Array>
                    </mxGeometry>
                </mxCell>
                <mxCell id="152" value="bi-directional" style="edgeLabel;html=1;align=center;verticalAlign=middle;resizable=0;points=[];" parent="151" vertex="1" connectable="0">
                    <mxGeometry x="0.0976" relative="1" as="geometry">
                        <mxPoint as="offset"/>
                    </mxGeometry>
                </mxCell>
                <mxCell id="211" value="&lt;i&gt;One CAR has one VIN,&lt;br&gt;One VIN is unique for one Car&lt;/i&gt;" style="text;html=1;strokeColor=none;fillColor=none;align=center;verticalAlign=middle;whiteSpace=wrap;rounded=0;fontFamily=Tahoma;" parent="154" vertex="1">
                    <mxGeometry x="291" y="288" width="97" height="70" as="geometry"/>
                </mxCell>
                <mxCell id="219" value="&lt;div style=&quot;border-color: rgb(0, 0, 0); color: rgb(204, 204, 204); font-family: &amp;quot;Anonymous Pro&amp;quot;, &amp;quot;Fira Code&amp;quot;, &amp;quot;Cascadia Code&amp;quot;, Consolas, &amp;quot;Courier New&amp;quot;, monospace, &amp;quot;Droid Sans Mono&amp;quot;, &amp;quot;monospace&amp;quot;, monospace; font-size: 20px; font-style: normal; font-variant-ligatures: normal; font-variant-caps: normal; font-weight: 700; letter-spacing: normal; orphans: 2; text-align: left; text-indent: 0px; text-transform: none; widows: 2; word-spacing: 0px; -webkit-text-stroke-width: 0px; background-color: rgb(36, 36, 36); text-decoration-thickness: initial; text-decoration-style: initial; text-decoration-color: initial;&quot;&gt;&lt;font style=&quot;border-color: rgb(0, 0, 0); font-size: 10px;&quot;&gt;@&lt;span style=&quot;border-color: rgb(0, 0, 0); color: rgb(204, 130, 66);&quot;&gt;OneToOne&lt;/span&gt;(&lt;span style=&quot;border-color: rgb(0, 0, 0); color: rgb(158, 123, 176);&quot;&gt;fetch&lt;/span&gt; = FetchType.&lt;span style=&quot;border-color: rgb(0, 0, 0); color: rgb(158, 123, 176);&quot;&gt;LAZY&lt;/span&gt;, &lt;span style=&quot;border-color: rgb(0, 0, 0); color: rgb(158, 123, 176);&quot;&gt;mappedBy&lt;/span&gt; = &lt;span style=&quot;border-color: rgb(0, 0, 0); color: rgb(106, 135, 89);&quot;&gt;&quot;car&quot;&lt;/span&gt;, &lt;/font&gt;&lt;/div&gt;&lt;div style=&quot;border-color: rgb(0, 0, 0); color: rgb(204, 204, 204); font-family: &amp;quot;Anonymous Pro&amp;quot;, &amp;quot;Fira Code&amp;quot;, &amp;quot;Cascadia Code&amp;quot;, Consolas, &amp;quot;Courier New&amp;quot;, monospace, &amp;quot;Droid Sans Mono&amp;quot;, &amp;quot;monospace&amp;quot;, monospace; font-size: 20px; font-style: normal; font-variant-ligatures: normal; font-variant-caps: normal; font-weight: 700; letter-spacing: normal; orphans: 2; text-align: left; text-indent: 0px; text-transform: none; widows: 2; word-spacing: 0px; -webkit-text-stroke-width: 0px; background-color: rgb(36, 36, 36); text-decoration-thickness: initial; text-decoration-style: initial; text-decoration-color: initial;&quot;&gt;&lt;font style=&quot;border-color: rgb(0, 0, 0); font-size: 10px;&quot;&gt;&lt;span style=&quot;border-color: rgb(0, 0, 0); color: rgb(158, 123, 176);&quot;&gt;cascade&lt;/span&gt; = CascadeType.&lt;span style=&quot;border-color: rgb(0, 0, 0); color: rgb(158, 123, 176);&quot;&gt;ALL&lt;/span&gt;, &lt;span style=&quot;border-color: rgb(0, 0, 0); color: rgb(158, 123, 176);&quot;&gt;orphanRemoval&lt;/span&gt; = &lt;span style=&quot;border-color: rgb(0, 0, 0); color: rgb(204, 130, 66);&quot;&gt;true&lt;/span&gt;)&lt;/font&gt;&lt;/div&gt;&lt;div style=&quot;border-color: rgb(0, 0, 0); color: rgb(204, 204, 204); font-family: &amp;quot;Anonymous Pro&amp;quot;, &amp;quot;Fira Code&amp;quot;, &amp;quot;Cascadia Code&amp;quot;, Consolas, &amp;quot;Courier New&amp;quot;, monospace, &amp;quot;Droid Sans Mono&amp;quot;, &amp;quot;monospace&amp;quot;, monospace; font-size: 20px; font-style: normal; font-variant-ligatures: normal; font-variant-caps: normal; font-weight: 700; letter-spacing: normal; orphans: 2; text-align: left; text-indent: 0px; text-transform: none; widows: 2; word-spacing: 0px; -webkit-text-stroke-width: 0px; background-color: rgb(36, 36, 36); text-decoration-thickness: initial; text-decoration-style: initial; text-decoration-color: initial;&quot;&gt;&lt;font style=&quot;border-color: rgb(0, 0, 0); font-size: 10px;&quot;&gt;  &lt;span style=&quot;border-color: rgb(0, 0, 0); color: rgb(204, 130, 66);&quot;&gt;private&lt;/span&gt; &lt;span style=&quot;border-color: rgb(0, 0, 0); color: rgb(204, 130, 66);&quot;&gt;Vin&lt;/span&gt; vin;&lt;/font&gt;&lt;/div&gt;" style="text;whiteSpace=wrap;html=1;fontSize=10;fillColor=none;strokeColor=default;" vertex="1" parent="154">
                    <mxGeometry y="140" width="282" height="81" as="geometry"/>
                </mxCell>
                <mxCell id="220" value="&lt;div style=&quot;color: rgb(204, 204, 204); background-color: rgb(36, 36, 36); font-family: &amp;quot;Anonymous Pro&amp;quot;, &amp;quot;Fira Code&amp;quot;, &amp;quot;Cascadia Code&amp;quot;, Consolas, &amp;quot;Courier New&amp;quot;, monospace, &amp;quot;Droid Sans Mono&amp;quot;, &amp;quot;monospace&amp;quot;, monospace; font-weight: bold; line-height: 22px;&quot;&gt;&lt;div style=&quot;&quot;&gt;&lt;font style=&quot;font-size: 12px;&quot;&gt;&lt;span style=&quot;color: rgb(204, 204, 204);&quot;&gt;  @&lt;/span&gt;&lt;span style=&quot;color: rgb(204, 130, 66);&quot;&gt;OneToOne&lt;/span&gt;&lt;span style=&quot;color: rgb(204, 204, 204);&quot;&gt;(&lt;/span&gt;&lt;span style=&quot;color: rgb(158, 123, 176);&quot;&gt;cascade&lt;/span&gt;&lt;span style=&quot;color: rgb(204, 204, 204);&quot;&gt; = CascadeType.&lt;/span&gt;&lt;span style=&quot;color: rgb(158, 123, 176);&quot;&gt;ALL&lt;/span&gt;&lt;span style=&quot;color: rgb(204, 204, 204);&quot;&gt;, &lt;/span&gt;&lt;span style=&quot;color: rgb(158, 123, 176);&quot;&gt;orphanRemoval&lt;/span&gt;&lt;span style=&quot;color: rgb(204, 204, 204);&quot;&gt; = &lt;/span&gt;&lt;span style=&quot;color: rgb(204, 130, 66);&quot;&gt;true&lt;/span&gt;&lt;span style=&quot;color: rgb(204, 204, 204);&quot;&gt;)&lt;/span&gt;&lt;/font&gt;&lt;/div&gt;&lt;div style=&quot;&quot;&gt;&lt;font style=&quot;font-size: 10px;&quot;&gt;&lt;span style=&quot;color: #cccccc;&quot;&gt;    @&lt;/span&gt;&lt;span style=&quot;color: #cc8242;&quot;&gt;JoinColumn&lt;/span&gt;&lt;span style=&quot;color: #cccccc;&quot;&gt;(&lt;/span&gt;&lt;span style=&quot;color: #9e7bb0;&quot;&gt;name&lt;/span&gt;&lt;span style=&quot;color: #cccccc;&quot;&gt; = &lt;/span&gt;&lt;span style=&quot;color: #6a8759;&quot;&gt;&quot;car_id&quot;&lt;/span&gt;&lt;span style=&quot;color: #cccccc;&quot;&gt;, &lt;/span&gt;&lt;span style=&quot;color: #9e7bb0;&quot;&gt;referencedColumnName&lt;/span&gt;&lt;span style=&quot;color: #cccccc;&quot;&gt; = &lt;/span&gt;&lt;span style=&quot;color: #6a8759;&quot;&gt;&quot;id&quot;&lt;/span&gt;&lt;span style=&quot;color: #cccccc;&quot;&gt;, &lt;/span&gt;&lt;span style=&quot;color: #9e7bb0;&quot;&gt;foreignKey&lt;/span&gt;&lt;span style=&quot;color: #cccccc;&quot;&gt; = @&lt;/span&gt;&lt;span style=&quot;color: #cc8242;&quot;&gt;ForeignKey&lt;/span&gt;&lt;span style=&quot;color: #cccccc;&quot;&gt;(&lt;/span&gt;&lt;span style=&quot;color: #9e7bb0;&quot;&gt;name&lt;/span&gt;&lt;span style=&quot;color: #cccccc;&quot;&gt; = &lt;/span&gt;&lt;span style=&quot;color: #6a8759;&quot;&gt;&quot;car_id&quot;&lt;/span&gt;&lt;span style=&quot;color: #cccccc;&quot;&gt;))&lt;/span&gt;&lt;/font&gt;&lt;/div&gt;&lt;div style=&quot;&quot;&gt;&lt;font style=&quot;font-size: 10px;&quot;&gt;&lt;span style=&quot;color: rgb(204, 204, 204);&quot;&gt;    &lt;/span&gt;&lt;span style=&quot;color: rgb(204, 130, 66);&quot;&gt;public&lt;/span&gt;&lt;span style=&quot;color: rgb(204, 204, 204);&quot;&gt; &lt;/span&gt;&lt;span style=&quot;color: rgb(204, 130, 66);&quot;&gt;Car&lt;/span&gt;&lt;span style=&quot;color: rgb(204, 204, 204);&quot;&gt; car;&lt;/span&gt;&lt;/font&gt;&lt;/div&gt;&lt;/div&gt;" style="text;whiteSpace=wrap;html=1;fontSize=10;fillColor=none;strokeColor=default;" vertex="1" parent="154">
                    <mxGeometry x="289" y="140" width="550" height="78" as="geometry"/>
                </mxCell>
                <mxCell id="168" value="" style="group" parent="1" vertex="1" connectable="0">
                    <mxGeometry x="-2030" y="-480" width="1180" height="300" as="geometry"/>
                </mxCell>
                <mxCell id="155" value="&lt;div style=&quot;color: rgb(204, 204, 204); background-color: rgb(36, 36, 36); font-family: &amp;quot;Anonymous Pro&amp;quot;, &amp;quot;Fira Code&amp;quot;, &amp;quot;Cascadia Code&amp;quot;, Consolas, &amp;quot;Courier New&amp;quot;, monospace, &amp;quot;Droid Sans Mono&amp;quot;, &amp;quot;monospace&amp;quot;, monospace; font-size: 16px; line-height: 22px;&quot;&gt;&lt;span style=&quot;color: #9e7bb0;&quot;&gt;fetch&lt;/span&gt;&lt;/div&gt;" style="text;strokeColor=none;fillColor=none;html=1;fontSize=24;fontStyle=1;verticalAlign=middle;align=center;" parent="168" vertex="1">
                    <mxGeometry y="140" width="100" height="40" as="geometry"/>
                </mxCell>
                <mxCell id="157" value="&lt;div style=&quot;color: rgb(204, 204, 204); background-color: rgb(36, 36, 36); font-family: &amp;quot;Anonymous Pro&amp;quot;, &amp;quot;Fira Code&amp;quot;, &amp;quot;Cascadia Code&amp;quot;, Consolas, &amp;quot;Courier New&amp;quot;, monospace, &amp;quot;Droid Sans Mono&amp;quot;, &amp;quot;monospace&amp;quot;, monospace; font-size: 16px; line-height: 22px;&quot;&gt;FetchType&lt;/div&gt;" style="text;strokeColor=none;fillColor=none;html=1;fontSize=24;fontStyle=1;verticalAlign=middle;align=center;" parent="168" vertex="1">
                    <mxGeometry x="200" y="140" width="140" height="40" as="geometry"/>
                </mxCell>
                <mxCell id="158" value="" style="edgeStyle=none;curved=1;html=1;strokeColor=default;startArrow=none;startFill=0;" parent="168" source="155" target="157" edge="1">
                    <mxGeometry relative="1" as="geometry"/>
                </mxCell>
                <mxCell id="159" value="&lt;div style=&quot;color: rgb(204, 204, 204); background-color: rgb(36, 36, 36); font-family: &amp;quot;Anonymous Pro&amp;quot;, &amp;quot;Fira Code&amp;quot;, &amp;quot;Cascadia Code&amp;quot;, Consolas, &amp;quot;Courier New&amp;quot;, monospace, &amp;quot;Droid Sans Mono&amp;quot;, &amp;quot;monospace&amp;quot;, monospace; font-size: 16px; line-height: 22px;&quot;&gt;&lt;span style=&quot;color: #9e7bb0;&quot;&gt;LAZY&lt;/span&gt;&lt;/div&gt;" style="text;strokeColor=none;fillColor=none;html=1;fontSize=24;fontStyle=1;verticalAlign=middle;align=center;" parent="168" vertex="1">
                    <mxGeometry x="200" y="230" width="140" height="40" as="geometry"/>
                </mxCell>
                <mxCell id="160" value="" style="edgeStyle=none;curved=1;html=1;strokeColor=default;startArrow=none;startFill=0;" parent="168" source="157" target="159" edge="1">
                    <mxGeometry relative="1" as="geometry"/>
                </mxCell>
                <mxCell id="161" value="" style="edgeStyle=none;curved=1;html=1;strokeColor=default;startArrow=none;startFill=0;" parent="168" source="157" target="159" edge="1">
                    <mxGeometry relative="1" as="geometry"/>
                </mxCell>
                <mxCell id="162" value="&lt;div style=&quot;color: rgb(204, 204, 204); background-color: rgb(36, 36, 36); font-family: &amp;quot;Anonymous Pro&amp;quot;, &amp;quot;Fira Code&amp;quot;, &amp;quot;Cascadia Code&amp;quot;, Consolas, &amp;quot;Courier New&amp;quot;, monospace, &amp;quot;Droid Sans Mono&amp;quot;, &amp;quot;monospace&amp;quot;, monospace; font-size: 16px; line-height: 22px;&quot;&gt;&lt;div style=&quot;line-height: 22px;&quot;&gt;&lt;span style=&quot;color: #9e7bb0;&quot;&gt;EAGER&lt;/span&gt;&lt;/div&gt;&lt;/div&gt;" style="text;strokeColor=none;fillColor=none;html=1;fontSize=24;fontStyle=1;verticalAlign=middle;align=center;" parent="168" vertex="1">
                    <mxGeometry x="200" y="50" width="140" height="40" as="geometry"/>
                </mxCell>
                <mxCell id="163" value="" style="edgeStyle=none;curved=1;html=1;strokeColor=default;startArrow=none;startFill=0;" parent="168" source="157" target="162" edge="1">
                    <mxGeometry relative="1" as="geometry"/>
                </mxCell>
                <mxCell id="164" value="&lt;div style=&quot;background-color: rgb(36, 36, 36); line-height: 22px;&quot;&gt;&lt;div style=&quot;text-align: left; line-height: 22px;&quot;&gt;&lt;font face=&quot;Anonymous Pro, Fira Code, Cascadia Code, Consolas, Courier New, monospace, Droid Sans Mono, monospace, monospace&quot; color=&quot;#9e7bb0&quot;&gt;&lt;span style=&quot;font-size: 16px;&quot;&gt;EAGER - Associated entities will always be retrieved&lt;/span&gt;&lt;/font&gt;&lt;/div&gt;&lt;div style=&quot;text-align: left; line-height: 22px;&quot;&gt;&lt;font face=&quot;Anonymous Pro, Fira Code, Cascadia Code, Consolas, Courier New, monospace, Droid Sans Mono, monospace, monospace&quot; color=&quot;#9e7bb0&quot;&gt;&lt;span style=&quot;font-size: 16px;&quot;&gt;along with the main entity automatically in a single query.&amp;nbsp;&lt;/span&gt;&lt;/font&gt;&lt;/div&gt;&lt;div style=&quot;text-align: left; line-height: 22px;&quot;&gt;&lt;font face=&quot;Anonymous Pro, Fira Code, Cascadia Code, Consolas, Courier New, monospace, Droid Sans Mono, monospace, monospace&quot; color=&quot;#9e7bb0&quot;&gt;&lt;span style=&quot;font-size: 16px;&quot;&gt;This avoids the need for lazy loading but can be inefficient&amp;nbsp;&lt;/span&gt;&lt;/font&gt;&lt;/div&gt;&lt;div style=&quot;text-align: left; line-height: 22px;&quot;&gt;&lt;font face=&quot;Anonymous Pro, Fira Code, Cascadia Code, Consolas, Courier New, monospace, Droid Sans Mono, monospace, monospace&quot; color=&quot;#9e7bb0&quot;&gt;&lt;span style=&quot;font-size: 16px;&quot;&gt;if you don't need the associated data&lt;/span&gt;&lt;/font&gt;&lt;br&gt;&lt;/div&gt;&lt;/div&gt;" style="text;strokeColor=none;fillColor=none;html=1;fontSize=24;fontStyle=1;verticalAlign=middle;align=center;" parent="168" vertex="1">
                    <mxGeometry x="420" width="540" height="140" as="geometry"/>
                </mxCell>
                <mxCell id="165" value="" style="edgeStyle=none;curved=1;html=1;strokeColor=default;startArrow=none;startFill=0;" parent="168" source="162" target="164" edge="1">
                    <mxGeometry relative="1" as="geometry"/>
                </mxCell>
                <mxCell id="166" value="&lt;div style=&quot;background-color: rgb(36, 36, 36); line-height: 22px;&quot;&gt;&lt;font face=&quot;Anonymous Pro, Fira Code, Cascadia Code, Consolas, Courier New, monospace, Droid Sans Mono, monospace, monospace&quot; color=&quot;#9e7bb0&quot;&gt;&lt;span style=&quot;font-size: 16px;&quot;&gt;LAZY - Associated entities are not retrieved automatically when&lt;/span&gt;&lt;/font&gt;&lt;/div&gt;&lt;div style=&quot;background-color: rgb(36, 36, 36); line-height: 22px;&quot;&gt;&lt;span style=&quot;font-size: 16px; color: rgb(158, 123, 176); font-family: &amp;quot;Anonymous Pro&amp;quot;, &amp;quot;Fira Code&amp;quot;, &amp;quot;Cascadia Code&amp;quot;, Consolas, &amp;quot;Courier New&amp;quot;, monospace, &amp;quot;Droid Sans Mono&amp;quot;, monospace, monospace;&quot;&gt;loading the main entity.&lt;/span&gt;&lt;/div&gt;&lt;div style=&quot;background-color: rgb(36, 36, 36); line-height: 22px;&quot;&gt;&lt;font face=&quot;Anonymous Pro, Fira Code, Cascadia Code, Consolas, Courier New, monospace, Droid Sans Mono, monospace, monospace&quot; color=&quot;#9e7bb0&quot;&gt;&lt;span style=&quot;font-size: 16px;&quot;&gt;They will only be retrieved later on when accessing them, via lazy loading.&lt;/span&gt;&lt;/font&gt;&lt;/div&gt;&lt;div style=&quot;background-color: rgb(36, 36, 36); line-height: 22px;&quot;&gt;&lt;font face=&quot;Anonymous Pro, Fira Code, Cascadia Code, Consolas, Courier New, monospace, Droid Sans Mono, monospace, monospace&quot; color=&quot;#9e7bb0&quot;&gt;&lt;span style=&quot;font-size: 16px;&quot;&gt;This avoids unnecessary queries but requires extra queries for lazy loading.&lt;/span&gt;&lt;/font&gt;&lt;br&gt;&lt;/div&gt;" style="text;strokeColor=none;fillColor=none;html=1;fontSize=24;fontStyle=1;verticalAlign=middle;align=left;fontFamily=Tahoma;" parent="168" vertex="1">
                    <mxGeometry x="420" y="190" width="760" height="110" as="geometry"/>
                </mxCell>
                <mxCell id="167" value="" style="edgeStyle=none;curved=1;html=1;strokeColor=default;fontFamily=Tahoma;startArrow=none;startFill=0;" parent="168" source="159" target="166" edge="1">
                    <mxGeometry relative="1" as="geometry"/>
                </mxCell>
                <mxCell id="187" value="&lt;div style=&quot;background-color: rgb(36, 36, 36); line-height: 22px;&quot;&gt;&lt;div style=&quot;line-height: 22px;&quot;&gt;&lt;font face=&quot;Anonymous Pro, Fira Code, Cascadia Code, Consolas, Courier New, monospace, Droid Sans Mono, monospace, monospace&quot; color=&quot;#9e7bb0&quot;&gt;&lt;span style=&quot;font-size: 16px;&quot;&gt;CascadeType.ALL - Cascades all operations (persist, merge, remove, refresh).&amp;nbsp;&lt;/span&gt;&lt;/font&gt;&lt;/div&gt;&lt;div style=&quot;line-height: 22px;&quot;&gt;&lt;font face=&quot;Anonymous Pro, Fira Code, Cascadia Code, Consolas, Courier New, monospace, Droid Sans Mono, monospace, monospace&quot; color=&quot;#9e7bb0&quot;&gt;&lt;span style=&quot;font-size: 16px;&quot;&gt;This is the default if no cascade type is specified.&lt;/span&gt;&lt;/font&gt;&lt;br&gt;&lt;/div&gt;&lt;/div&gt;" style="text;strokeColor=none;fillColor=none;html=1;fontSize=24;fontStyle=1;verticalAlign=middle;align=left;fontFamily=Tahoma;" parent="1" vertex="1">
                    <mxGeometry x="-1607" y="-138" width="675" height="78" as="geometry"/>
                </mxCell>
                <mxCell id="188" value="" style="edgeStyle=none;curved=1;html=1;strokeColor=default;fontFamily=Tahoma;startArrow=none;startFill=0;entryX=0;entryY=0.5;entryDx=0;entryDy=0;" parent="1" source="173" target="187" edge="1">
                    <mxGeometry relative="1" as="geometry"/>
                </mxCell>
                <mxCell id="171" value="&lt;div style=&quot;color: rgb(204, 204, 204); background-color: rgb(36, 36, 36); font-family: &amp;quot;Anonymous Pro&amp;quot;, &amp;quot;Fira Code&amp;quot;, &amp;quot;Cascadia Code&amp;quot;, Consolas, &amp;quot;Courier New&amp;quot;, monospace, &amp;quot;Droid Sans Mono&amp;quot;, &amp;quot;monospace&amp;quot;, monospace; font-size: 16px; line-height: 22px;&quot;&gt;&lt;div style=&quot;line-height: 22px;&quot;&gt;CascadeType&lt;/div&gt;&lt;/div&gt;" style="text;strokeColor=none;fillColor=none;html=1;fontSize=24;fontStyle=1;verticalAlign=middle;align=center;" parent="1" vertex="1">
                    <mxGeometry x="-1928" y="152" width="140" height="40" as="geometry"/>
                </mxCell>
                <mxCell id="172" value="&lt;div style=&quot;color: rgb(204, 204, 204); background-color: rgb(36, 36, 36); font-family: &amp;quot;Anonymous Pro&amp;quot;, &amp;quot;Fira Code&amp;quot;, &amp;quot;Cascadia Code&amp;quot;, Consolas, &amp;quot;Courier New&amp;quot;, monospace, &amp;quot;Droid Sans Mono&amp;quot;, &amp;quot;monospace&amp;quot;, monospace; font-size: 16px; line-height: 22px;&quot;&gt;&lt;div style=&quot;line-height: 22px;&quot;&gt;&lt;span style=&quot;color: #9e7bb0;&quot;&gt;MERGE&lt;/span&gt;&lt;/div&gt;&lt;/div&gt;" style="text;strokeColor=none;fillColor=none;html=1;fontSize=24;fontStyle=1;verticalAlign=middle;align=center;" parent="1" vertex="1">
                    <mxGeometry x="-1709" y="76" width="50" height="40" as="geometry"/>
                </mxCell>
                <mxCell id="182" style="edgeStyle=none;curved=1;html=1;exitX=1;exitY=0.5;exitDx=0;exitDy=0;entryX=0;entryY=0.5;entryDx=0;entryDy=0;strokeColor=default;fontFamily=Tahoma;startArrow=none;startFill=0;" parent="1" source="171" target="172" edge="1">
                    <mxGeometry relative="1" as="geometry"/>
                </mxCell>
                <mxCell id="173" value="&lt;div style=&quot;color: rgb(204, 204, 204); background-color: rgb(36, 36, 36); font-family: &amp;quot;Anonymous Pro&amp;quot;, &amp;quot;Fira Code&amp;quot;, &amp;quot;Cascadia Code&amp;quot;, Consolas, &amp;quot;Courier New&amp;quot;, monospace, &amp;quot;Droid Sans Mono&amp;quot;, &amp;quot;monospace&amp;quot;, monospace; font-size: 16px; line-height: 22px;&quot;&gt;&lt;div style=&quot;line-height: 22px;&quot;&gt;&lt;span style=&quot;color: #9e7bb0;&quot;&gt;ALL&lt;/span&gt;&lt;/div&gt;&lt;/div&gt;" style="text;strokeColor=none;fillColor=none;html=1;fontSize=24;fontStyle=1;verticalAlign=middle;align=center;" parent="1" vertex="1">
                    <mxGeometry x="-1730" y="-82" width="30" height="40" as="geometry"/>
                </mxCell>
                <mxCell id="180" style="edgeStyle=none;curved=1;html=1;exitX=1;exitY=0.5;exitDx=0;exitDy=0;entryX=0;entryY=0.5;entryDx=0;entryDy=0;strokeColor=default;fontFamily=Tahoma;startArrow=none;startFill=0;" parent="1" source="171" target="173" edge="1">
                    <mxGeometry relative="1" as="geometry"/>
                </mxCell>
                <mxCell id="174" value="&lt;div style=&quot;color: rgb(204, 204, 204); background-color: rgb(36, 36, 36); font-family: &amp;quot;Anonymous Pro&amp;quot;, &amp;quot;Fira Code&amp;quot;, &amp;quot;Cascadia Code&amp;quot;, Consolas, &amp;quot;Courier New&amp;quot;, monospace, &amp;quot;Droid Sans Mono&amp;quot;, &amp;quot;monospace&amp;quot;, monospace; font-weight: bold; font-size: 16px; line-height: 22px;&quot;&gt;&lt;div&gt;&lt;span style=&quot;color: #9e7bb0;&quot;&gt;DETACH&lt;/span&gt;&lt;/div&gt;&lt;/div&gt;" style="text;strokeColor=none;fillColor=none;html=1;fontSize=24;fontStyle=1;verticalAlign=middle;align=center;fontFamily=Tahoma;" parent="1" vertex="1">
                    <mxGeometry x="-1728" y="-18" width="60" height="40" as="geometry"/>
                </mxCell>
                <mxCell id="181" style="edgeStyle=none;curved=1;html=1;exitX=1;exitY=0.5;exitDx=0;exitDy=0;entryX=0;entryY=0.5;entryDx=0;entryDy=0;strokeColor=default;fontFamily=Tahoma;startArrow=none;startFill=0;" parent="1" source="171" target="174" edge="1">
                    <mxGeometry relative="1" as="geometry"/>
                </mxCell>
                <mxCell id="176" value="&lt;div style=&quot;color: rgb(204, 204, 204); background-color: rgb(36, 36, 36); font-family: &amp;quot;Anonymous Pro&amp;quot;, &amp;quot;Fira Code&amp;quot;, &amp;quot;Cascadia Code&amp;quot;, Consolas, &amp;quot;Courier New&amp;quot;, monospace, &amp;quot;Droid Sans Mono&amp;quot;, &amp;quot;monospace&amp;quot;, monospace; font-size: 16px; line-height: 22px;&quot;&gt;&lt;div style=&quot;line-height: 22px;&quot;&gt;&lt;div style=&quot;line-height: 22px;&quot;&gt;&lt;span style=&quot;color: #9e7bb0;&quot;&gt;PERSIST&lt;/span&gt;&lt;/div&gt;&lt;/div&gt;&lt;/div&gt;" style="text;strokeColor=none;fillColor=none;html=1;fontSize=24;fontStyle=1;verticalAlign=middle;align=center;fontFamily=Tahoma;" parent="1" vertex="1">
                    <mxGeometry x="-1730" y="163" width="70" height="40" as="geometry"/>
                </mxCell>
                <mxCell id="183" style="edgeStyle=none;curved=1;html=1;exitX=1;exitY=0.5;exitDx=0;exitDy=0;entryX=0;entryY=0.5;entryDx=0;entryDy=0;strokeColor=default;fontFamily=Tahoma;startArrow=none;startFill=0;" parent="1" source="171" target="176" edge="1">
                    <mxGeometry relative="1" as="geometry"/>
                </mxCell>
                <mxCell id="178" value="&lt;div style=&quot;color: rgb(204, 204, 204); background-color: rgb(36, 36, 36); font-family: &amp;quot;Anonymous Pro&amp;quot;, &amp;quot;Fira Code&amp;quot;, &amp;quot;Cascadia Code&amp;quot;, Consolas, &amp;quot;Courier New&amp;quot;, monospace, &amp;quot;Droid Sans Mono&amp;quot;, &amp;quot;monospace&amp;quot;, monospace; font-size: 16px; line-height: 22px;&quot;&gt;&lt;div style=&quot;line-height: 22px;&quot;&gt;&lt;div style=&quot;line-height: 22px;&quot;&gt;&lt;div style=&quot;line-height: 22px;&quot;&gt;&lt;span style=&quot;color: #9e7bb0;&quot;&gt;REFRESH&lt;/span&gt;&lt;/div&gt;&lt;/div&gt;&lt;/div&gt;&lt;/div&gt;" style="text;strokeColor=none;fillColor=none;html=1;fontSize=24;fontStyle=1;verticalAlign=middle;align=center;fontFamily=Tahoma;" parent="1" vertex="1">
                    <mxGeometry x="-1728" y="237" width="70" height="40" as="geometry"/>
                </mxCell>
                <mxCell id="184" style="edgeStyle=none;curved=1;html=1;exitX=1;exitY=0.5;exitDx=0;exitDy=0;entryX=0;entryY=0.5;entryDx=0;entryDy=0;strokeColor=default;fontFamily=Tahoma;startArrow=none;startFill=0;" parent="1" source="171" target="178" edge="1">
                    <mxGeometry relative="1" as="geometry"/>
                </mxCell>
                <mxCell id="179" value="&lt;div style=&quot;color: rgb(204, 204, 204); background-color: rgb(36, 36, 36); font-family: &amp;quot;Anonymous Pro&amp;quot;, &amp;quot;Fira Code&amp;quot;, &amp;quot;Cascadia Code&amp;quot;, Consolas, &amp;quot;Courier New&amp;quot;, monospace, &amp;quot;Droid Sans Mono&amp;quot;, &amp;quot;monospace&amp;quot;, monospace; font-weight: bold; font-size: 16px; line-height: 22px;&quot;&gt;&lt;div&gt;&lt;span style=&quot;color: #9e7bb0;&quot;&gt;REMOVE&lt;/span&gt;&lt;/div&gt;&lt;/div&gt;" style="text;whiteSpace=wrap;html=1;fontFamily=Tahoma;" parent="1" vertex="1">
                    <mxGeometry x="-1714" y="338" width="60" height="30" as="geometry"/>
                </mxCell>
                <mxCell id="185" style="edgeStyle=none;curved=1;html=1;exitX=1;exitY=0.5;exitDx=0;exitDy=0;entryX=0;entryY=0.5;entryDx=0;entryDy=0;strokeColor=default;fontFamily=Tahoma;startArrow=none;startFill=0;" parent="1" source="171" target="179" edge="1">
                    <mxGeometry relative="1" as="geometry"/>
                </mxCell>
                <mxCell id="198" value="&lt;div style=&quot;background-color: rgb(36, 36, 36); line-height: 22px;&quot;&gt;&lt;div style=&quot;line-height: 22px;&quot;&gt;&lt;font face=&quot;Anonymous Pro, Fira Code, Cascadia Code, Consolas, Courier New, monospace, Droid Sans Mono, monospace, monospace&quot; color=&quot;#9e7bb0&quot;&gt;&lt;span style=&quot;font-size: 16px;&quot;&gt;CascadeType.PERSIST - Cascades the persist&lt;/span&gt;&lt;/font&gt;&lt;/div&gt;&lt;div style=&quot;line-height: 22px;&quot;&gt;&lt;font face=&quot;Anonymous Pro, Fira Code, Cascadia Code, Consolas, Courier New, monospace, Droid Sans Mono, monospace, monospace&quot; color=&quot;#9e7bb0&quot;&gt;&lt;span style=&quot;font-size: 16px;&quot;&gt;operation so child entities are persisted when the parent is persisted.&lt;/span&gt;&lt;/font&gt;&lt;br&gt;&lt;/div&gt;&lt;/div&gt;" style="text;strokeColor=none;fillColor=none;html=1;fontSize=24;fontStyle=1;verticalAlign=middle;align=left;fontFamily=Tahoma;" parent="1" vertex="1">
                    <mxGeometry x="-1611" y="144" width="630" height="78" as="geometry"/>
                </mxCell>
                <mxCell id="197" style="edgeStyle=none;curved=1;html=1;exitX=1;exitY=0.5;exitDx=0;exitDy=0;entryX=0;entryY=0.5;entryDx=0;entryDy=0;strokeColor=default;fontFamily=Tahoma;startArrow=none;startFill=0;" parent="1" source="176" target="198" edge="1">
                    <mxGeometry relative="1" as="geometry">
                        <mxPoint x="-1601" y="287" as="targetPoint"/>
                    </mxGeometry>
                </mxCell>
                <mxCell id="199" value="&lt;div style=&quot;background-color: rgb(36, 36, 36); line-height: 22px;&quot;&gt;&lt;div style=&quot;line-height: 22px;&quot;&gt;&lt;font face=&quot;Anonymous Pro, Fira Code, Cascadia Code, Consolas, Courier New, monospace, Droid Sans Mono, monospace, monospace&quot; color=&quot;#9e7bb0&quot;&gt;&lt;span style=&quot;font-size: 16px;&quot;&gt;CascadeType.MERGE - Cascades the merge operation so changes&lt;/span&gt;&lt;/font&gt;&lt;/div&gt;&lt;div style=&quot;line-height: 22px;&quot;&gt;&lt;font face=&quot;Anonymous Pro, Fira Code, Cascadia Code, Consolas, Courier New, monospace, Droid Sans Mono, monospace, monospace&quot; color=&quot;#9e7bb0&quot;&gt;&lt;span style=&quot;font-size: 16px;&quot;&gt;&amp;nbsp;to the parent entity are merged to child entities.&lt;/span&gt;&lt;/font&gt;&lt;br&gt;&lt;/div&gt;&lt;/div&gt;" style="text;strokeColor=none;fillColor=none;html=1;fontSize=24;fontStyle=1;verticalAlign=middle;align=left;fontFamily=Tahoma;" parent="1" vertex="1">
                    <mxGeometry x="-1607" y="57" width="515" height="78" as="geometry"/>
                </mxCell>
                <mxCell id="201" style="edgeStyle=none;curved=1;html=1;exitX=1;exitY=0.5;exitDx=0;exitDy=0;entryX=0;entryY=0.5;entryDx=0;entryDy=0;strokeColor=default;fontFamily=Tahoma;startArrow=none;startFill=0;" parent="1" source="172" target="199" edge="1">
                    <mxGeometry relative="1" as="geometry"/>
                </mxCell>
                <mxCell id="200" value="&lt;div style=&quot;background-color: rgb(36, 36, 36); line-height: 22px;&quot;&gt;&lt;div style=&quot;line-height: 22px;&quot;&gt;&lt;font face=&quot;Anonymous Pro, Fira Code, Cascadia Code, Consolas, Courier New, monospace, Droid Sans Mono, monospace, monospace&quot; color=&quot;#9e7bb0&quot;&gt;&lt;span style=&quot;font-size: 16px;&quot;&gt;CascadeType.REMOVE - Cascades the remove operation so&lt;/span&gt;&lt;/font&gt;&lt;/div&gt;&lt;div style=&quot;line-height: 22px;&quot;&gt;&lt;font face=&quot;Anonymous Pro, Fira Code, Cascadia Code, Consolas, Courier New, monospace, Droid Sans Mono, monospace, monospace&quot; color=&quot;#9e7bb0&quot;&gt;&lt;span style=&quot;font-size: 16px;&quot;&gt;child entities are removed when the parent is removed.&lt;/span&gt;&lt;/font&gt;&lt;br&gt;&lt;/div&gt;&lt;/div&gt;" style="text;strokeColor=none;fillColor=none;html=1;fontSize=24;fontStyle=1;verticalAlign=middle;align=left;fontFamily=Tahoma;" parent="1" vertex="1">
                    <mxGeometry x="-1611" y="314" width="481" height="78" as="geometry"/>
                </mxCell>
                <mxCell id="202" style="edgeStyle=none;curved=1;html=1;exitX=1;exitY=0.5;exitDx=0;exitDy=0;entryX=0;entryY=0.5;entryDx=0;entryDy=0;strokeColor=default;fontFamily=Tahoma;startArrow=none;startFill=0;" parent="1" source="179" target="200" edge="1">
                    <mxGeometry relative="1" as="geometry"/>
                </mxCell>
                <mxCell id="206" style="edgeStyle=none;curved=1;html=1;exitX=1;exitY=0.5;exitDx=0;exitDy=0;strokeColor=default;fontFamily=Tahoma;startArrow=none;startFill=0;entryX=0;entryY=0.5;entryDx=0;entryDy=0;" parent="1" source="178" target="205" edge="1">
                    <mxGeometry relative="1" as="geometry">
                        <mxPoint x="516.0000610351562" y="275.5000114440918" as="targetPoint"/>
                    </mxGeometry>
                </mxCell>
                <mxCell id="203" value="&lt;div style=&quot;background-color: rgb(36, 36, 36); line-height: 22px;&quot;&gt;&lt;div style=&quot;line-height: 22px;&quot;&gt;&lt;font face=&quot;Anonymous Pro, Fira Code, Cascadia Code, Consolas, Courier New, monospace, Droid Sans Mono, monospace, monospace&quot; color=&quot;#9e7bb0&quot;&gt;&lt;span style=&quot;font-size: 16px;&quot;&gt;CascadeType.DETACH specifies that the detach operation should be cascaded&lt;/span&gt;&lt;/font&gt;&lt;/div&gt;&lt;div style=&quot;line-height: 22px;&quot;&gt;&lt;font face=&quot;Anonymous Pro, Fira Code, Cascadia Code, Consolas, Courier New, monospace, Droid Sans Mono, monospace, monospace&quot; color=&quot;#9e7bb0&quot;&gt;&lt;span style=&quot;font-size: 16px;&quot;&gt;&amp;nbsp;from a parent entity to its child entities in a relationship.&lt;/span&gt;&lt;/font&gt;&lt;br&gt;&lt;/div&gt;&lt;/div&gt;" style="text;strokeColor=none;fillColor=none;html=1;fontSize=24;fontStyle=1;verticalAlign=middle;align=left;fontFamily=Tahoma;" parent="1" vertex="1">
                    <mxGeometry x="-1607" y="-37" width="647" height="78" as="geometry"/>
                </mxCell>
                <mxCell id="204" style="edgeStyle=none;curved=1;html=1;exitX=1;exitY=0.5;exitDx=0;exitDy=0;entryX=0;entryY=0.5;entryDx=0;entryDy=0;strokeColor=default;fontFamily=Tahoma;startArrow=none;startFill=0;" parent="1" source="174" target="203" edge="1">
                    <mxGeometry relative="1" as="geometry"/>
                </mxCell>
                <mxCell id="186" style="edgeStyle=none;curved=1;html=1;exitX=1;exitY=0.5;exitDx=0;exitDy=0;entryX=0;entryY=0.5;entryDx=0;entryDy=0;strokeColor=default;fontFamily=Tahoma;startArrow=none;startFill=0;" parent="1" source="170" target="171" edge="1">
                    <mxGeometry relative="1" as="geometry"/>
                </mxCell>
                <mxCell id="170" value="&lt;div style=&quot;color: rgb(204, 204, 204); background-color: rgb(36, 36, 36); font-family: &amp;quot;Anonymous Pro&amp;quot;, &amp;quot;Fira Code&amp;quot;, &amp;quot;Cascadia Code&amp;quot;, Consolas, &amp;quot;Courier New&amp;quot;, monospace, &amp;quot;Droid Sans Mono&amp;quot;, &amp;quot;monospace&amp;quot;, monospace; font-size: 16px; line-height: 22px;&quot;&gt;&lt;div style=&quot;line-height: 22px;&quot;&gt;&lt;span style=&quot;color: #9e7bb0;&quot;&gt;cascade&lt;/span&gt;&lt;/div&gt;&lt;/div&gt;" style="text;strokeColor=none;fillColor=none;html=1;fontSize=24;fontStyle=1;verticalAlign=middle;align=center;" parent="1" vertex="1">
                    <mxGeometry x="-2128" y="152" width="100" height="40" as="geometry"/>
                </mxCell>
                <mxCell id="205" value="&lt;div style=&quot;background-color: rgb(36, 36, 36); line-height: 22px;&quot;&gt;&lt;div style=&quot;line-height: 22px;&quot;&gt;&lt;font face=&quot;Anonymous Pro, Fira Code, Cascadia Code, Consolas, Courier New, monospace, Droid Sans Mono, monospace, monospace&quot; color=&quot;#9e7bb0&quot;&gt;&lt;span style=&quot;font-size: 16px;&quot;&gt;CascadeType.REFRESH specifies that the refresh operation should be&lt;/span&gt;&lt;/font&gt;&lt;/div&gt;&lt;div style=&quot;line-height: 22px;&quot;&gt;&lt;font face=&quot;Anonymous Pro, Fira Code, Cascadia Code, Consolas, Courier New, monospace, Droid Sans Mono, monospace, monospace&quot; color=&quot;#9e7bb0&quot;&gt;&lt;span style=&quot;font-size: 16px;&quot;&gt;&amp;nbsp;cascaded from a parent entity to its child entities.&lt;/span&gt;&lt;/font&gt;&lt;br&gt;&lt;/div&gt;&lt;/div&gt;" style="text;strokeColor=none;fillColor=none;html=1;fontSize=24;fontStyle=1;verticalAlign=middle;align=left;fontFamily=Tahoma;" parent="1" vertex="1">
                    <mxGeometry x="-1611" y="218" width="583" height="78" as="geometry"/>
                </mxCell>
                <mxCell id="213" value="Driver" style="swimlane;fontStyle=0;childLayout=stackLayout;horizontal=1;startSize=30;horizontalStack=0;resizeParent=1;resizeParentMax=0;resizeLast=0;collapsible=1;marginBottom=0;whiteSpace=wrap;html=1;" vertex="1" parent="1">
                    <mxGeometry x="596" y="-636" width="162" height="180" as="geometry"/>
                </mxCell>
                <mxCell id="214" value="&lt;b&gt;id :&lt;/b&gt; Long autogenerated" style="text;strokeColor=none;fillColor=none;align=left;verticalAlign=middle;spacingLeft=4;spacingRight=4;overflow=hidden;points=[[0,0.5],[1,0.5]];portConstraint=eastwest;rotatable=0;whiteSpace=wrap;html=1;" vertex="1" parent="213">
                    <mxGeometry y="30" width="162" height="30" as="geometry"/>
                </mxCell>
                <mxCell id="215" value="&lt;b&gt;name :&lt;/b&gt; TEXT" style="text;strokeColor=none;fillColor=none;align=left;verticalAlign=middle;spacingLeft=4;spacingRight=4;overflow=hidden;points=[[0,0.5],[1,0.5]];portConstraint=eastwest;rotatable=0;whiteSpace=wrap;html=1;" vertex="1" parent="213">
                    <mxGeometry y="60" width="162" height="30" as="geometry"/>
                </mxCell>
                <mxCell id="216" value="&lt;b&gt;age :&lt;/b&gt; INT" style="text;strokeColor=none;fillColor=none;align=left;verticalAlign=middle;spacingLeft=4;spacingRight=4;overflow=hidden;points=[[0,0.5],[1,0.5]];portConstraint=eastwest;rotatable=0;whiteSpace=wrap;html=1;" vertex="1" parent="213">
                    <mxGeometry y="90" width="162" height="30" as="geometry"/>
                </mxCell>
                <mxCell id="217" value="&lt;b&gt;yearsOfExperience :&lt;/b&gt; INT" style="text;strokeColor=none;fillColor=none;align=left;verticalAlign=middle;spacingLeft=4;spacingRight=4;overflow=hidden;points=[[0,0.5],[1,0.5]];portConstraint=eastwest;rotatable=0;whiteSpace=wrap;html=1;" vertex="1" parent="213">
                    <mxGeometry y="120" width="162" height="30" as="geometry"/>
                </mxCell>
                <mxCell id="229" value="Set of cars" style="text;strokeColor=none;fillColor=none;align=left;verticalAlign=middle;spacingLeft=4;spacingRight=4;overflow=hidden;points=[[0,0.5],[1,0.5]];portConstraint=eastwest;rotatable=0;whiteSpace=wrap;html=1;" vertex="1" parent="213">
                    <mxGeometry y="150" width="162" height="30" as="geometry"/>
                </mxCell>
                <mxCell id="221" value="Car" style="swimlane;fontStyle=1;childLayout=stackLayout;horizontal=1;startSize=30;horizontalStack=0;resizeParent=1;resizeParentMax=0;resizeLast=0;collapsible=1;marginBottom=0;whiteSpace=wrap;html=1;" vertex="1" parent="1">
                    <mxGeometry x="196" y="-633" width="240" height="240" as="geometry">
                        <mxRectangle x="-620" y="-370" width="60" height="30" as="alternateBounds"/>
                    </mxGeometry>
                </mxCell>
                <mxCell id="222" value="id :&amp;nbsp;&lt;span style=&quot;font-weight: normal;&quot;&gt;Long autogenerated&lt;/span&gt;" style="text;strokeColor=none;fillColor=none;align=left;verticalAlign=middle;spacingLeft=4;spacingRight=4;overflow=hidden;points=[[0,0.5],[1,0.5]];portConstraint=eastwest;rotatable=0;whiteSpace=wrap;html=1;fontStyle=1" vertex="1" parent="221">
                    <mxGeometry y="30" width="240" height="30" as="geometry"/>
                </mxCell>
                <mxCell id="223" value="name : &lt;span style=&quot;font-weight: 400;&quot;&gt;TEXT&lt;/span&gt;" style="text;strokeColor=none;fillColor=none;align=left;verticalAlign=middle;spacingLeft=4;spacingRight=4;overflow=hidden;points=[[0,0.5],[1,0.5]];portConstraint=eastwest;rotatable=0;whiteSpace=wrap;html=1;fontStyle=1" vertex="1" parent="221">
                    <mxGeometry y="60" width="240" height="30" as="geometry"/>
                </mxCell>
                <mxCell id="224" value="color :&amp;nbsp;&lt;span style=&quot;font-weight: 400;&quot;&gt;TEXT&lt;/span&gt;" style="text;strokeColor=none;fillColor=none;align=left;verticalAlign=middle;spacingLeft=4;spacingRight=4;overflow=hidden;points=[[0,0.5],[1,0.5]];portConstraint=eastwest;rotatable=0;whiteSpace=wrap;html=1;fontStyle=1" vertex="1" parent="221">
                    <mxGeometry y="90" width="240" height="30" as="geometry"/>
                </mxCell>
                <mxCell id="225" value="year :&amp;nbsp;&lt;span style=&quot;font-weight: 400;&quot;&gt;INT&lt;/span&gt;" style="text;strokeColor=none;fillColor=none;align=left;verticalAlign=middle;spacingLeft=4;spacingRight=4;overflow=hidden;points=[[0,0.5],[1,0.5]];portConstraint=eastwest;rotatable=0;whiteSpace=wrap;html=1;fontStyle=1" vertex="1" parent="221">
                    <mxGeometry y="120" width="240" height="30" as="geometry"/>
                </mxCell>
                <mxCell id="226" value="number_of_seats :&amp;nbsp;&lt;span style=&quot;font-weight: 400;&quot;&gt;INT&lt;/span&gt;" style="text;strokeColor=none;fillColor=none;align=left;verticalAlign=middle;spacingLeft=4;spacingRight=4;overflow=hidden;points=[[0,0.5],[1,0.5]];portConstraint=eastwest;rotatable=0;whiteSpace=wrap;html=1;fontStyle=1" vertex="1" parent="221">
                    <mxGeometry y="150" width="240" height="30" as="geometry"/>
                </mxCell>
                <mxCell id="227" value="&lt;b&gt;vin :&lt;/b&gt; VIN reference id" style="text;strokeColor=none;fillColor=none;align=left;verticalAlign=middle;spacingLeft=4;spacingRight=4;overflow=hidden;points=[[0,0.5],[1,0.5]];portConstraint=eastwest;rotatable=0;whiteSpace=wrap;html=1;" vertex="1" parent="221">
                    <mxGeometry y="180" width="240" height="30" as="geometry"/>
                </mxCell>
                <mxCell id="228" value="driver reference" style="text;strokeColor=none;fillColor=none;align=left;verticalAlign=middle;spacingLeft=4;spacingRight=4;overflow=hidden;points=[[0,0.5],[1,0.5]];portConstraint=eastwest;rotatable=0;whiteSpace=wrap;html=1;" vertex="1" parent="221">
                    <mxGeometry y="210" width="240" height="30" as="geometry"/>
                </mxCell>
            </root>
        </mxGraphModel>
    </diagram>
</mxfile>